{"title":"The Bay 2012 HDRiP AC3-2 0 XviD-AXED","uid":7787392,"size":1449515052,"categoryP":"video","categoryS":"movies","magnet":"?xt=urn:btih:6735561aeecff758baf0110b6fa00bfa8bf3f15f&amp;dn=The+Bay+2012+HDRiP+AC3-2+0+XviD-AXED&amp;tr=udp%3A%2F%2Ftracker.openbittorrent.com%3A80&amp;tr=udp%3A%2F%2Fopen.demonii.com%3A1337&amp;tr=udp%3A%2F%2Ftracker.coppersurfer.tk%3A6969&amp;tr=udp%3A%2F%2Fexodus.desync.com%3A6969","seeders":0,"leechers":1,"uploader":"AN0NYMOUS142857","files":3,"time":1351934449,"description":"IMDB: &lt;a href=&quot;\nhttp://www.imdb.com/title/tt1713476/&quot; rel=&quot;nofollow&quot; target=&quot;_NEW&quot;&gt;\nhttp://www.imdb.com/title/tt1713476/&lt;/a&gt;\n\nPLOT INFO:\nChaos breaks out in a small Maryland town after an ecological disaster occurs.\n\nMEDIAINFO:\nGeneral\nComplete name                            : The.Bay.2012.HDRiP.AC3-2.0.XviD-AXED.avi\nFormat                                   : AVI\nFormat/Info                              : Audio Video Interleave\nFile size                                : 1.33 GiB\nDuration                                 : 1h 25mn\nOverall bit rate                         : 2 241 Kbps\n\nVideo\nID                                       : 0\nFormat                                   : MPEG-4 Visual\nFormat profile                           : Advanced Simple@L5\nFormat settings, BVOP                    : 2\nFormat settings, QPel                    : No\nFormat settings, GMC                     : No warppoints\nFormat settings, Matrix                  : Default (H.263)\nMuxing mode                              : Packed bitstream\nCodec ID                                 : XVID\nCodec ID/Hint                            : XviD\nDuration                                 : 1h 25mn\nBit rate                                 : 2 041 Kbps\nWidth                                    : 720 pixels\nHeight                                   : 400 pixels\nDisplay aspect ratio                     : 16:9\nFrame rate                               : 23.976 fps\nColor space                              : YUV\nChroma subsampling                       : 4:2:0\nBit depth                                : 8 bits\nScan type                                : Progressive\nCompression mode                         : Lossy\nBits/(Pixel*Frame)                       : 0.296\nStream size                              : 1.21 GiB (91%)\nWriting library                          : XviD 64\n\nAudio\nID                                       : 1\nFormat                                   : AC-3\nFormat/Info                              : Audio Coding 3\nMode extension                           : CM (complete main)\nFormat settings, Endianness              : Big\nCodec ID                                 : 2000\nDuration                                 : 1h 25mn\nBit rate mode                            : Constant\nBit rate                                 : 192 Kbps\nChannel(s)                               : 2 channels\nChannel positions                        : Front: L R\nSampling rate                            : 48.0 KHz\nBit depth                                : 16 bits\nCompression mode                         : Lossy\nStream size                              : 117 MiB (9%)\nAlignment                                : Aligned on interleaves\nInterleave, duration                     : 64 ms (1.53 video frames)\nInterleave, preload duration             : 192 ms\nTitle                                    : thebay\n\n\n\n\nSOURCE:\n720p wmv Digital VOD Rental\n\n\nNOTES:\nEnjoy this nice encode from our own 720p HD source of the new horror/thriller that hit theatres today from acclaimed director Barry Levinson!\n\nAXED! - The only name to trust for VOD/HDRiP!","torrent":{"xt":"urn:btih:6735561aeecff758baf0110b6fa00bfa8bf3f15f","amp;dn":"The+Bay+2012+HDRiP+AC3-2+0+XviD-AXED","amp;tr":["udp%3A%2F%2Ftracker.openbittorrent.com%3A80","udp%3A%2F%2Fopen.demonii.com%3A1337","udp%3A%2F%2Ftracker.coppersurfer.tk%3A6969","udp%3A%2F%2Fexodus.desync.com%3A6969"],"infoHash":"6735561aeecff758baf0110b6fa00bfa8bf3f15f","infoHashBuffer":{"type":"Buffer","data":[103,53,86,26,238,207,247,88,186,240,17,11,111,160,11,250,139,243,241,95]},"announce":[],"urlList":[]}}